# xmcd
#
# Track frame offsets:
#	150
#	16098
#	29721
#	41994
#	56292
#	65790
#	84288
#	99411
#	109959
#
# Disc length: 1640 seconds
#
# Revision: 2
# Processed by: cddbd v1.5.2PL0 Copyright (c) Steve Scherf et al.
# Submitted via: audiograbber 1.83.01
#
DISCID=73066609
DTITLE=Yolandita Monge - En Su Intimidad
DYEAR=1978
DGENRE=Latin
TTITLE0=El Mundo Fue De Dos
TTITLE1=Amor De Otro Amor
TTITLE2=Me Falto Tiempo
TTITLE3=Es
TTITLE4=Desagradecido
TTITLE5=Cuando Te Asomes Al Amor
TTITLE6=Quiero Empezar El Olvido
TTITLE7=Tu Cariño
TTITLE8=Amnesia
EXTD=
EXTT0=
EXTT1=
EXTT2=
EXTT3=
EXTT4=
EXTT5=
EXTT6=
EXTT7=
EXTT8=
PLAYORDER=
